<svg width="170" height="198" viewBox="0 0 170 198" fill="none" xmlns="http://www.w3.org/2000/svg">
<path d="M161 61.2161C158.059 47.301 153.919 33.1029 144.02 22.9057C121.601 -0.196896 93.0945 10.1151 81.759 20.7713C74.7546 27.3579 70.1486 36.553 70.0722 46.1765C69.9958 55.8 70.9507 75.2765 95.6839 77.0896C100.03 77.4109 122.006 73.7772 103.154 56.0142C81.2855 35.4055 58.1563 47.9972 49.4867 53.681C30.2456 66.2956 34.691 92.9554 50.747 107.421C70.8437 125.536 101.565 137.516 128.071 136.735C144.203 136.254 159.014 121.466 142.882 108.117C131.164 98.4174 25.8229 77.5103 10.3551 136.598C2.44936 166.784 31.3379 178.458 40.145 181.678C77.8558 195.463 131.623 190.713 158.487 159.456" stroke="#FFC163" stroke-width="18" stroke-miterlimit="10" stroke-linecap="round"/>
</svg>
