<svg width="288" height="182" viewBox="0 0 288 182" fill="none" xmlns="http://www.w3.org/2000/svg">
<path d="M279 136.054C268.876 150.546 257.103 174.496 236.442 172.927C228.807 172.295 222.698 166.243 221.494 158.945C219.821 148.879 223.415 139.671 226.392 129.937C230.333 118.059 235.362 106.545 240.3 94.9907C245.601 81.5671 253.805 66.938 250.837 52.2279C247.803 37.8819 231.042 33.6664 219.45 40.9728C199.712 57.3335 173.421 94.2139 156.025 111.546C150.616 116.497 141.671 116.02 137.252 109.571C133.377 103.729 133.88 95.9535 135.306 89.5856C139.552 72.3025 149.38 45.0751 150.295 28.3018C151.399 16.7878 142.256 10.2014 131.629 9.08484C110.573 7.44229 85.5092 30.0333 71.205 43.6915C60.0089 54.9385 50.066 67.6257 40.9146 80.9279C23.8814 106.877 12.9904 131.483 26.6433 146.185C32.1259 152.124 42.1842 156.121 50.775 154.381C67.5032 151.751 75.3849 136.418 78.2705 121.215C81.1808 107.767 81.5931 94.1573 78.9301 80.6528C70.8339 38.0033 35.2671 25.5669 9 63.7662" stroke="#115C4B" stroke-width="18" stroke-miterlimit="10" stroke-linecap="round"/>
</svg>
