<svg width="188" height="178" viewBox="0 0 188 178" fill="none" xmlns="http://www.w3.org/2000/svg">
<path d="M86.6816 169.173C85.2355 168.45 83.7893 167.728 74.3673 157.965C64.9453 148.202 47.5912 129.42 36.723 116.253C25.8548 103.087 21.9984 96.1037 18.8065 89.7373C9.68365 71.5409 9.50869 65.8371 8.65414 61.076C4.57203 38.3329 20.028 14.6097 42.9496 9.86792C59.604 6.42261 75.1908 7.29652 89.6945 16.2817C103.91 25.0881 104.196 33.1917 106.636 38.6533C112.155 51.0097 110.678 61.9225 109.097 66.6726C107.091 72.6967 99.5966 82.7039 90.8339 78.3363C74.5599 70.2248 85.4388 45.608 93.1127 35.3041C102.16 23.1563 111.982 20.0869 115.397 18.6239C125.351 14.359 135.554 13.2921 146.311 14.359C165.187 16.2312 179.923 30.9843 179.923 50.5688C179.923 64.4262 177.525 74.3707 170.205 86.3298C164.673 95.3685 162.408 98.8618 154.761 106.877C150.395 111.454 140.803 118.286 132.718 123.313C126.839 126.969 120.791 129.026 114.944 132.313C111.522 133.9 109.09 135.119 107.268 135.604C106.409 135.849 105.686 136.089 104.941 136.338" stroke="currentColor" stroke-width="16" stroke-linecap="round"/>
</svg>
