<svg width="20" height="20" viewBox="0 0 20 20" fill="none" xmlns="http://www.w3.org/2000/svg">
<path d="M10 20C15.51 20 20 15.51 20 10C20 4.49 15.51 -3.92528e-07 10 -8.74228e-07C4.49 -1.35593e-06 1.35593e-06 4.49 8.74228e-07 10C3.92528e-07 15.51 4.49 20 10 20ZM8.21 7C7.92 6.71 7.92 6.23 8.21 5.94C8.36 5.79 8.55 5.72 8.74 5.72C8.93 5.72 9.12 5.79 9.27 5.94L12.8 9.47C13.09 9.76 13.09 10.24 12.8 10.53L9.27 14.06C8.98 14.35 8.5 14.35 8.21 14.06C7.92 13.77 7.92 13.29 8.21 13L11.21 10L8.21 7Z" fill="#115C4B"/>
</svg>
