<svg width="259" height="249" viewBox="0 0 259 249" fill="none" xmlns="http://www.w3.org/2000/svg">
<path d="M232.364 151.159C242.535 128.141 251.277 103.475 247.612 78.5975C239.324 22.2449 187.736 7.56891 160.443 11.1451C143.575 13.3574 127.453 21.7953 117.39 35.5325C107.327 49.2698 88.5535 78.2193 122.184 106.401C128.09 111.357 163.396 128.866 154.705 83.8688C144.627 31.6653 98.4012 25.8234 80.0771 25.0177C39.4088 23.2295 18.2169 66.1017 26.304 103.475C36.4177 150.265 68.1293 199.235 106.986 225.526C130.642 241.518 167.198 235.605 157.846 199.757C151.058 173.713 21.4609 34.7565 -61.8563 103.591C-104.426 138.753 -75.0297 185.388 -65.7178 199.12C-25.8403 257.91 56.257 306.694 127.15 289.6" stroke="#FFC163" stroke-width="21" stroke-miterlimit="10" stroke-linecap="round"/>
</svg>
