<svg width="259" height="185" viewBox="0 0 259 185" fill="none" xmlns="http://www.w3.org/2000/svg">
<path d="M83.0253 -41.5189C62.8729 -36.5199 42.3687 -29.757 27.9951 -14.7958C-4.56975 19.0867 11.9274 60.1484 28.0523 76.1423C38.0188 86.0252 51.6691 92.2763 65.7138 91.8975C79.7584 91.5187 108.126 89.1337 109.511 52.9592C109.759 46.6023 103.338 14.7279 78.382 43.1345C49.4277 76.0877 68.977 109.188 77.7114 121.546C97.0961 148.974 135.766 141.131 156.054 116.97C181.46 86.7296 197.374 41.3009 194.885 2.67323C193.361 -20.837 171.032 -41.6908 152.377 -17.4761C138.822 0.111917 113.684 154.855 200.68 174.41C245.125 184.406 260.685 141.667 264.936 128.655C283.127 72.9378 273.458 -5.25807 226.485 -42.857" stroke="#FFC163" stroke-width="17" stroke-miterlimit="10" stroke-linecap="round"/>
</svg>
