<svg width="26" height="26" viewBox="0 0 26 26" fill="none" xmlns="http://www.w3.org/2000/svg">
<path d="M10.8225 24.6783C10.1725 24.6783 9.55501 24.3533 9.13251 23.7792L7.83253 22.0458C7.83253 22.0567 7.77836 22.0242 7.75669 22.0242H7.35586C3.65086 22.0242 1.35419 21.0167 1.35419 16.0225V11.6892C1.35419 7.12834 4.13837 5.93668 6.47837 5.73084C6.73837 5.69834 7.0417 5.6875 7.35586 5.6875H14.2892C18.2109 5.6875 20.2909 7.76751 20.2909 11.6892V16.0225C20.2909 16.3367 20.28 16.64 20.2367 16.9325C20.0417 19.24 18.85 22.0242 14.2892 22.0242H13.8559L12.5125 23.7792C12.09 24.3533 11.4725 24.6783 10.8225 24.6783ZM7.35586 7.3125C7.1067 7.3125 6.86836 7.32333 6.64086 7.345C4.12753 7.56167 2.97919 8.93751 2.97919 11.6892V16.0225C2.97919 19.7383 4.12753 20.3992 7.35586 20.3992H7.78919C8.27669 20.3992 8.82918 20.67 9.13251 21.06L10.4325 22.8042C10.6709 23.1292 10.9742 23.1292 11.2125 22.8042L12.5125 21.0708C12.8267 20.6483 13.325 20.3992 13.8559 20.3992H14.2892C17.0409 20.3992 18.4167 19.24 18.6225 16.77C18.655 16.51 18.6659 16.2717 18.6659 16.0225V11.6892C18.6659 8.66668 17.3117 7.3125 14.2892 7.3125H7.35586V7.3125Z" fill="currentColor"/>
<path d="M10.8228 15.3727C10.2161 15.3727 9.73944 14.8852 9.73944 14.2894C9.73944 13.6936 10.2269 13.2061 10.8228 13.2061C11.4186 13.2061 11.9061 13.6936 11.9061 14.2894C11.9061 14.8852 11.4294 15.3727 10.8228 15.3727Z" fill="currentColor"/>
<path d="M14.2891 15.3727C13.6824 15.3727 13.2057 14.8852 13.2057 14.2894C13.2057 13.6936 13.6932 13.2061 14.2891 13.2061C14.8849 13.2061 15.3724 13.6936 15.3724 14.2894C15.3724 14.8852 14.8849 15.3727 14.2891 15.3727Z" fill="currentColor"/>
<path d="M7.36648 15.3727C6.75981 15.3727 6.28314 14.8852 6.28314 14.2894C6.28314 13.6936 6.77064 13.2061 7.36648 13.2061C7.96231 13.2061 8.44981 13.6936 8.44981 14.2894C8.44981 14.8852 7.96231 15.3727 7.36648 15.3727Z" fill="currentColor"/>
<path d="M19.4352 17.6473C19.2185 17.6473 19.0018 17.5607 18.8502 17.3982C18.6768 17.2248 18.601 16.9757 18.6335 16.7374C18.666 16.5099 18.6768 16.2715 18.6768 16.0223V11.689C18.6768 8.66651 17.3227 7.31234 14.3002 7.31234H7.36682C7.11765 7.31234 6.87935 7.32317 6.65185 7.34484C6.41351 7.37734 6.16433 7.29066 5.991 7.12816C5.81766 6.95482 5.72015 6.71652 5.74182 6.47818C5.93682 4.13818 7.13932 1.354 11.7002 1.354H18.6335C22.5552 1.354 24.6352 3.43401 24.6352 7.35568V11.689C24.6352 16.2498 21.851 17.4415 19.511 17.6473C19.4785 17.6473 19.4568 17.6473 19.4352 17.6473ZM7.49685 5.68734H14.2893C18.211 5.68734 20.291 7.76735 20.291 11.689V15.8815C22.1327 15.4265 22.9993 14.0723 22.9993 11.689V7.35568C22.9993 4.33318 21.6452 2.979 18.6227 2.979H11.6893C9.30601 2.979 7.96268 3.84567 7.49685 5.68734Z" fill="currentColor"/>
</svg>
