<svg width="78" height="78" viewBox="0 0 78 78" fill="none" xmlns="http://www.w3.org/2000/svg">
<path d="M26.2926 37.7973L11.0501 37.7973C11.3101 22.6198 14.3001 20.1173 23.6276 14.5923C24.7001 13.9423 25.0576 12.5773 24.4076 11.4723C23.7576 10.3998 22.3926 10.0423 21.2876 10.6923C10.3026 17.1923 6.46755 21.1573 6.46755 40.0723L6.46755 57.5898C6.46755 63.1473 10.9851 67.6323 16.5101 67.6323L26.2601 67.6323C31.9801 67.6323 36.3026 63.3098 36.3026 57.5898L36.3026 47.8398C36.3351 42.1198 32.0126 37.7973 26.2926 37.7973Z" fill="#F4E7D7"/>
<path d="M61.4575 37.7973L46.215 37.7973C46.475 22.6198 49.465 20.1173 58.7925 14.5923C59.865 13.9423 60.2225 12.5773 59.5725 11.4723C58.9225 10.3998 57.5575 10.0423 56.4525 10.6923C45.4675 17.1923 41.6325 21.1573 41.6325 40.0723L41.6325 57.5898C41.6325 63.1473 46.15 67.6323 51.675 67.6323L61.425 67.6323C67.1775 67.6323 71.5 63.3098 71.5 57.5898L71.5 47.8398C71.5 42.1198 67.1775 37.7973 61.4575 37.7973Z" fill="#F4E7D7"/>
</svg>
