<svg width="78" height="78" viewBox="0 0 78 78" fill="none" xmlns="http://www.w3.org/2000/svg">
<path d="M51.7074 40.2027H66.9499C66.6899 55.3802 63.6999 57.8827 54.3724 63.4077C53.2999 64.0577 52.9424 65.4227 53.5924 66.5277C54.2424 67.6002 55.6074 67.9577 56.7125 67.3077C67.6975 60.8077 71.5324 56.8427 71.5324 37.9277V20.4102C71.5324 14.8527 67.0149 10.3677 61.4899 10.3677H51.7399C46.0199 10.3677 41.6974 14.6902 41.6974 20.4102V30.1602C41.6649 35.8802 45.9874 40.2027 51.7074 40.2027Z" fill="#F4E7D7"/>
<path d="M16.5425 40.2027H31.785C31.525 55.3802 28.535 57.8827 19.2075 63.4077C18.135 64.0577 17.7775 65.4227 18.4275 66.5277C19.0775 67.6002 20.4425 67.9577 21.5475 67.3077C32.5325 60.8077 36.3675 56.8427 36.3675 37.9277V20.4102C36.3675 14.8527 31.85 10.3677 26.325 10.3677H16.575C10.8225 10.3677 6.5 14.6902 6.5 20.4102V30.1602C6.5 35.8802 10.8225 40.2027 16.5425 40.2027Z" fill="#F4E7D7"/>
</svg>
