<svg width="25" height="24" viewBox="0 0 25 24" fill="none" xmlns="http://www.w3.org/2000/svg">
<path d="M13.7456 3.50965L15.5056 7.02965C15.7456 7.51965 16.3856 7.98965 16.9256 8.07965L20.1156 8.60965C22.1556 8.94965 22.6356 10.4296 21.1656 11.8896L18.6856 14.3696C18.2656 14.7896 18.0356 15.5996 18.1656 16.1796L18.8756 19.2496C19.4356 21.6796 18.1456 22.6196 15.9956 21.3496L13.0056 19.5796C12.4656 19.2596 11.5756 19.2596 11.0256 19.5796L8.03563 21.3496C5.89563 22.6196 4.59563 21.6696 5.15563 19.2496L5.86563 16.1796C5.99563 15.5996 5.76563 14.7896 5.34563 14.3696L2.86563 11.8896C1.40563 10.4296 1.87563 8.94965 3.91563 8.60965L7.10563 8.07965C7.63563 7.98965 8.27563 7.51965 8.51563 7.02965L10.2756 3.50965C11.2356 1.59965 12.7956 1.59965 13.7456 3.50965Z" stroke="#5C2311" stroke-width="1.5" stroke-linecap="round" stroke-linejoin="round"/>
</svg>
